<svg width="16" height="18" viewBox="0 0 16 18" fill="none" xmlns="http://www.w3.org/2000/svg">
<path d="M14.8598 6.1362C14.7554 6.2172 12.9122 7.2558 12.9122 9.5652C12.9122 12.2364 15.2576 13.1814 15.3278 13.2048C15.317 13.2624 14.9552 14.499 14.0912 15.759C13.3208 16.8678 12.5162 17.9748 11.2922 17.9748C10.0682 17.9748 9.7532 17.2638 8.3402 17.2638C6.9632 17.2638 6.4736 17.9982 5.354 17.9982C4.2344 17.9982 3.4532 16.9722 2.555 15.7122C1.5146 14.2326 0.673996 11.934 0.673996 9.7524C0.673996 6.2532 2.9492 4.3974 5.1884 4.3974C6.3782 4.3974 7.37 5.1786 8.117 5.1786C8.828 5.1786 9.9368 4.3506 11.2904 4.3506C11.8034 4.3506 13.6466 4.3974 14.8598 6.1362ZM10.6478 2.8692C11.2076 2.205 11.6036 1.2834 11.6036 0.3618C11.6036 0.234 11.5928 0.1044 11.5694 0C10.6586 0.0342 9.575 0.6066 8.9216 1.3644C8.4086 1.9476 7.9298 2.8692 7.9298 3.8034C7.9298 3.9438 7.9532 4.0842 7.964 4.1292C8.0216 4.14 8.1152 4.1526 8.2088 4.1526C9.026 4.1526 10.0538 3.6054 10.6478 2.8692Z" fill="black"/>
</svg>
