<svg width="20" height="19" viewBox="0 0 20 19" fill="none" xmlns="http://www.w3.org/2000/svg">
<path d="M7 5.5C7 7.15685 8.34315 8.5 10 8.5C11.6569 8.5 13 7.15685 13 5.5M19 4.69995V14.3C19 15.4201 19.0002 15.9802 18.7822 16.408C18.5905 16.7844 18.2841 17.0902 17.9078 17.282C17.48 17.5 16.9203 17.5 15.8002 17.5H4.2002C3.08009 17.5 2.51962 17.5 2.0918 17.282C1.71547 17.0902 1.40973 16.7844 1.21799 16.408C1 15.9802 1 15.4201 1 14.3V4.69995C1 3.57985 1 3.01986 1.21799 2.59204C1.40973 2.21572 1.71547 1.90973 2.0918 1.71799C2.51962 1.5 3.08009 1.5 4.2002 1.5H15.8002C16.9203 1.5 17.48 1.5 17.9078 1.71799C18.2841 1.90973 18.5905 2.21572 18.7822 2.59204C19.0002 3.01986 19 3.57985 19 4.69995Z" stroke="#585858" stroke-width="2" stroke-linecap="round" stroke-linejoin="round"/>
</svg>
