<svg width="20" height="18" viewBox="0 0 20 18" fill="none" xmlns="http://www.w3.org/2000/svg">
<path d="M10.0001 0C5.00873 0 0.962376 4.04636 0.962376 9.03768C0.962376 13.5143 4.22064 17.2217 8.49275 17.9396V10.9232H6.3126V8.39825H8.49275V6.53647C8.49275 4.37626 9.81214 3.19907 11.7395 3.19907C12.6626 3.19907 13.4558 3.26786 13.6861 3.29815V5.55614L12.3494 5.55679C11.3014 5.55679 11.0994 6.05466 11.0994 6.78551V8.39696H13.5999L13.2737 10.9219H11.0994V18C15.571 17.4558 19.0376 13.6539 19.0376 9.03509C19.0376 4.04636 14.9913 0 10.0001 0Z" fill="#076FE5"/>
</svg>
