<svg width="160" height="30" viewBox="0 0 160 30" fill="none" xmlns="http://www.w3.org/2000/svg">
<path d="M19.5411 14.4931V27.841H14.3878V15.8448C14.3878 15.0141 14.1836 14.2608 13.7753 13.585C13.367 12.895 12.8179 12.353 12.128 11.9587C11.4521 11.5504 10.6988 11.3462 9.86813 11.3462C9.03741 11.3462 8.27709 11.5504 7.58717 11.9587C6.91133 12.353 6.36925 12.895 5.96093 13.585C5.56669 14.2608 5.36957 15.0141 5.36957 15.8448V27.841H0.216288L0.195168 6.72097H5.34845L5.36957 8.60065C6.08765 7.84033 6.94653 7.24193 7.94621 6.80545C8.94589 6.35489 10.023 6.12961 11.1776 6.12961C12.7123 6.12961 14.1132 6.50977 15.3804 7.27009C16.6476 8.01633 17.6544 9.02305 18.4006 10.2902C19.1609 11.5434 19.5411 12.9443 19.5411 14.4931Z" fill="#303030"/>
<path d="M32.6292 28.3901C30.6862 28.3901 28.9121 27.8902 27.307 26.8906C25.7159 25.8909 24.4417 24.5462 23.4843 22.8566C22.5409 21.167 22.0692 19.3014 22.0692 17.2598C22.0692 15.7251 22.3438 14.289 22.8929 12.9514C23.442 11.5997 24.1953 10.417 25.1527 9.40321C26.1243 8.37537 27.2507 7.57281 28.5319 6.99553C29.8132 6.41825 31.179 6.12961 32.6292 6.12961C34.2766 6.12961 35.7831 6.48161 37.1489 7.18561C38.5287 7.87553 39.6974 8.82593 40.6548 10.0368C41.6123 11.2477 42.3092 12.6275 42.7457 14.1763C43.1822 15.7251 43.2807 17.3443 43.0414 19.0339H27.6027C27.7998 19.8224 28.1236 20.5334 28.5742 21.167C29.0247 21.7866 29.595 22.2864 30.2849 22.6666C30.9748 23.0326 31.7563 23.2227 32.6292 23.2368C33.5303 23.2509 34.347 23.0397 35.0791 22.6032C35.8254 22.1526 36.4449 21.5472 36.9377 20.7869L42.1966 22.0119C41.3377 23.8845 40.0564 25.4192 38.3527 26.616C36.6491 27.7987 34.7412 28.3901 32.6292 28.3901ZM27.4337 15.169H37.8247C37.6699 14.3242 37.339 13.5638 36.8321 12.888C36.3393 12.1981 35.7268 11.649 34.9947 11.2406C34.2625 10.8323 33.474 10.6282 32.6292 10.6282C31.7844 10.6282 31.003 10.8323 30.2849 11.2406C29.5668 11.6349 28.9543 12.177 28.4475 12.8669C27.9547 13.5427 27.6167 14.3101 27.4337 15.169Z" fill="#303030"/>
<path d="M55.853 28.3901C53.9099 28.3901 52.1358 27.8902 50.5307 26.8906C48.9397 25.8909 47.6654 24.5533 46.708 22.8778C45.7646 21.1882 45.293 19.3226 45.293 17.281C45.293 15.7322 45.5675 14.289 46.1166 12.9514C46.6658 11.5997 47.419 10.417 48.3765 9.40321C49.348 8.37537 50.4744 7.57281 51.7557 6.99553C53.037 6.41825 54.4027 6.12961 55.853 6.12961C57.796 6.12961 59.563 6.62945 61.1541 7.62913C62.7592 8.62881 64.0334 9.97345 64.9768 11.663C65.9342 13.3526 66.413 15.2253 66.413 17.281C66.413 18.8157 66.1384 20.2519 65.5893 21.5895C65.0402 22.927 64.2798 24.1098 63.3083 25.1376C62.3509 26.1514 61.2315 26.9469 59.9502 27.5242C58.6831 28.1014 57.3173 28.3901 55.853 28.3901ZM55.853 23.2368C56.8808 23.2368 57.803 22.9622 58.6197 22.4131C59.4363 21.864 60.077 21.1389 60.5416 20.2378C61.0203 19.3366 61.2597 18.351 61.2597 17.281C61.2597 16.1827 61.0133 15.183 60.5205 14.2819C60.0418 13.3667 59.3871 12.6416 58.5563 12.1066C57.7397 11.5574 56.8386 11.2829 55.853 11.2829C54.8392 11.2829 53.924 11.5574 53.1074 12.1066C52.2907 12.6557 51.643 13.3878 51.1643 14.303C50.6856 15.2182 50.4462 16.2109 50.4462 17.281C50.4462 18.3933 50.6926 19.4 51.1854 20.3011C51.6782 21.2022 52.333 21.9203 53.1496 22.4554C53.9803 22.9763 54.8815 23.2368 55.853 23.2368Z" fill="#303030"/>
<path d="M69.8208 28.6013V7.48129H74.974V9.36097C75.6921 8.60065 76.551 8.00225 77.5507 7.56577C78.5504 7.11521 79.6275 6.88993 80.782 6.88993C82.2464 6.88993 83.591 7.23489 84.816 7.92481C86.055 8.61473 87.0406 9.53697 87.7728 10.6915C88.519 9.53697 89.5046 8.61473 90.7296 7.92481C91.9545 7.23489 93.2992 6.88993 94.7635 6.88993C96.3123 6.88993 97.7132 7.27009 98.9664 8.03041C100.234 8.77665 101.24 9.78337 101.987 11.0506C102.747 12.3037 103.127 13.7046 103.127 15.2534V28.6013H97.9737V16.6262C97.9737 15.8096 97.7696 15.0634 97.3612 14.3875C96.967 13.6976 96.432 13.1485 95.7561 12.7402C95.0944 12.3178 94.3481 12.1066 93.5174 12.1066C92.6867 12.1066 91.9334 12.3107 91.2576 12.719C90.5958 13.1133 90.0608 13.6483 89.6524 14.3242C89.2441 15 89.04 15.7674 89.04 16.6262V28.6013H83.8867V16.6262C83.8867 15.7674 83.6896 15 83.2953 14.3242C82.9011 13.6483 82.366 13.1133 81.6902 12.719C81.0144 12.3107 80.2611 12.1066 79.4304 12.1066C78.6137 12.1066 77.8675 12.3178 77.1916 12.7402C76.5158 13.1485 75.9737 13.6976 75.5654 14.3875C75.1712 15.0634 74.974 15.8096 74.974 16.6262V28.6013H69.8208Z" fill="#DB9E00"/>
<path d="M122.87 7.48129H128.024V28.6013H122.87L122.638 25.9824C122.061 26.9258 121.293 27.6931 120.336 28.2845C119.392 28.8618 118.273 29.1504 116.978 29.1504C115.415 29.1504 113.951 28.8547 112.585 28.2634C111.219 27.672 110.015 26.8554 108.973 25.8134C107.945 24.7715 107.136 23.5677 106.544 22.2019C105.967 20.8362 105.679 19.3718 105.679 17.809C105.679 16.3024 105.953 14.8874 106.502 13.5638C107.065 12.2403 107.847 11.0787 108.847 10.079C109.846 9.07937 111.001 8.29793 112.31 7.73473C113.62 7.17153 115.028 6.88993 116.534 6.88993C117.928 6.88993 119.174 7.19969 120.272 7.81921C121.385 8.43873 122.328 9.22721 123.103 10.1846L122.87 7.48129ZM116.851 24.1872C117.949 24.1872 118.921 23.9126 119.766 23.3635C120.61 22.8144 121.272 22.0752 121.751 21.1459C122.23 20.2026 122.469 19.1677 122.469 18.0413C122.469 16.9008 122.23 15.8659 121.751 14.9366C121.272 13.9933 120.603 13.247 119.744 12.6979C118.9 12.1488 117.935 11.8742 116.851 11.8742C115.767 11.8742 114.774 12.1558 113.873 12.719C112.986 13.2682 112.275 14.0074 111.74 14.9366C111.219 15.8659 110.959 16.9008 110.959 18.0413C110.959 19.1818 111.226 20.2166 111.761 21.1459C112.296 22.0752 113.007 22.8144 113.894 23.3635C114.795 23.9126 115.781 24.1872 116.851 24.1872Z" fill="#DB9E00"/>
<path d="M132.253 28.6013L132.232 7.48129H137.385L137.406 9.36097C138.125 8.60065 138.983 8.00225 139.983 7.56577C140.983 7.11521 142.06 6.88993 143.214 6.88993C143.989 6.88993 144.763 7.00257 145.538 7.22785L143.51 12.4234C142.975 12.2122 142.44 12.1066 141.905 12.1066C141.074 12.1066 140.314 12.3107 139.624 12.719C138.948 13.1133 138.406 13.6554 137.998 14.3453C137.604 15.0211 137.406 15.7744 137.406 16.6051V28.6013H132.253Z" fill="#DB9E00"/>
<path d="M159.805 12.6346H155.708V28.6013H150.554V12.6346H147.429V7.48129H150.554V0.849609H155.708V7.48129H159.805V12.6346Z" fill="#DB9E00"/>
</svg>
